<svg xmlns="http://www.w3.org/2000/svg" viewBox="0 0 500 500"><g id="freepik--Floor--inject-4"><polygon points="37.43 403.76 90.58 403.51 143.72 403.43 250 403.26 356.28 403.43 409.42 403.51 462.57 403.76 409.42 404 356.28 404.09 250 404.26 143.72 404.09 90.58 404 37.43 403.76" style="fill:#263238"></polygon></g><g id="freepik--Board--inject-4"><rect x="117.17" y="52.13" width="265.65" height="196.02" style="fill:#ebebeb"></rect><rect x="384.75" y="51.59" width="1" height="140.3" style="fill:#263238"></rect><polygon points="387.05 196.61 383.45 196.61 384.35 191.44 386.15 191.44 387.05 196.61" style="fill:#263238"></polygon><rect x="388.4" y="51.59" width="1" height="113.57" style="fill:#263238"></rect><polygon points="390.7 168.96 387.1 168.96 388.01 163.79 389.8 163.79 390.7 168.96" style="fill:#263238"></polygon><rect x="107.45" y="44.33" width="285.11" height="14.53" style="fill:#c7c7c7"></rect><rect x="195.36" y="77.29" width="109.29" height="2.42" style="fill:#c7c7c7"></rect><rect x="214.04" y="82.35" width="71.91" height="2.42" style="fill:#c7c7c7"></rect><path d="M282.73,136a17.39,17.39,0,1,1-8.38-32.63v17.39Z" style="fill:#263238"></path><path d="M284.66,106.73l-10.31,14V103.34A17.26,17.26,0,0,1,284.66,106.73Z" style="fill:#0071E3"></path><path d="M291.74,120.73a17.29,17.29,0,0,1-4.61,11.78l-12.78-11.78,10.31-14A17.35,17.35,0,0,1,291.74,120.73Z" style="fill:#a6a6a6"></path><path d="M293.38,140.58A17.22,17.22,0,0,1,289,144l-8.37-15.24Z" style="fill:#455a64"></path><path d="M227.42,104l-4.77,16.73v17.39a17.39,17.39,0,0,1,0-34.78A17.78,17.78,0,0,1,227.42,104Z" style="fill:#a6a6a6"></path><path d="M232.94,134.73a17.25,17.25,0,0,1-10.29,3.39V120.73Z" style="fill:#263238"></path><path d="M240,120.73a17.33,17.33,0,0,1-7.09,14l-10.29-14,13.52-10.93A17.28,17.28,0,0,1,240,120.73Z" style="fill:#455a64"></path><path d="M240,104.17,226.51,115.1l4.78-16.73A17.38,17.38,0,0,1,240,104.17Z" style="fill:#0071E3"></path><path d="M170.94,103.34v17.39l-11.71,12.85a17.39,17.39,0,0,1,11.71-30.24Z" style="fill:#455a64"></path><path d="M183.39,108.59l-12.45,12.14V103.34A17.34,17.34,0,0,1,183.39,108.59Z" style="fill:#0071E3"></path><path d="M188.33,120.73a17.32,17.32,0,0,1-6.41,13.47l-11-13.47,12.45-12.14A17.36,17.36,0,0,1,188.33,120.73Z" style="fill:#a6a6a6"></path><path d="M181.92,138.76a17.39,17.39,0,0,1-22.69-.62l11.71-12.85Z" style="fill:#263238"></path><path d="M326.06,103.34v34.78a17.39,17.39,0,0,1,0-34.78Z" style="fill:#0071E3"></path><path d="M330.45,103.9l-4.39,16.83V103.34A17.6,17.6,0,0,1,330.45,103.9Z" style="fill:#263238"></path><path d="M346.45,119.73a17.31,17.31,0,0,1-1.21,6.37l-16.18-6.37,4.39-16.83A17.4,17.4,0,0,1,346.45,119.73Z" style="fill:#455a64"></path><path d="M342.24,127.1a17.41,17.41,0,0,1-16.18,11V120.73Z" style="fill:#a6a6a6"></path><rect x="162.92" y="148.34" width="20.3" height="1.95" style="fill:#c7c7c7"></rect><rect x="162.92" y="152.41" width="13.47" height="1.95" style="fill:#c7c7c7"></rect><rect x="153.55" y="148.32" width="6.08" height="6.08" style="fill:#455a64"></rect><rect x="214.63" y="148.34" width="20.3" height="1.95" style="fill:#c7c7c7"></rect><rect x="214.63" y="152.41" width="13.47" height="1.95" style="fill:#c7c7c7"></rect><rect x="205.26" y="148.32" width="6.08" height="6.08" style="fill:#a6a6a6"></rect><rect x="266.34" y="148.34" width="20.3" height="1.95" style="fill:#c7c7c7"></rect><rect x="266.34" y="152.41" width="13.47" height="1.95" style="fill:#c7c7c7"></rect><rect x="256.97" y="148.32" width="6.08" height="6.08" style="fill:#263238"></rect><rect x="318.05" y="148.34" width="20.3" height="1.95" style="fill:#c7c7c7"></rect><rect x="318.05" y="152.41" width="13.47" height="1.95" style="fill:#c7c7c7"></rect><rect x="308.68" y="148.32" width="6.08" height="6.08" style="fill:#0071E3"></rect><path d="M152.21,172.77l47-.12c15.66,0,31.33,0,47,.12-15.66.11-31.33.08-47,.13Z" style="fill:#c7c7c7"></path><path d="M152.21,176.6l47-.12c15.66,0,31.33,0,47,.12-15.66.11-31.33.09-47,.13Z" style="fill:#c7c7c7"></path><path d="M152.21,180.44l47-.13c15.66.05,31.33,0,47,.13-15.66.1-31.33.08-47,.12Z" style="fill:#c7c7c7"></path><path d="M152.21,184.27l47-.13c15.66.05,31.33,0,47,.13-15.66.11-31.33.08-47,.12Z" style="fill:#c7c7c7"></path><path d="M152.21,188.1l47-.12c15.66,0,31.33,0,47,.12-15.66.11-31.33.08-47,.13Z" style="fill:#c7c7c7"></path><path d="M152.21,191.93l47-.12c15.66,0,31.33,0,47,.12-15.66.11-31.33.09-47,.13Z" style="fill:#c7c7c7"></path><path d="M152.21,195.77l47-.13c15.66.05,31.33,0,47,.13-15.66.1-31.33.08-47,.12Z" style="fill:#c7c7c7"></path><path d="M152.21,199.6l47-.13c15.66.05,31.33,0,47,.13-15.66.11-31.33.08-47,.12Z" style="fill:#c7c7c7"></path><path d="M152.21,203.43l47-.12c15.66,0,31.33,0,47,.12-15.66.11-31.33.08-47,.13Z" style="fill:#c7c7c7"></path><path d="M152.21,207.26l47-.12c15.66,0,31.33,0,47,.12-15.66.11-31.33.09-47,.13Z" style="fill:#c7c7c7"></path><path d="M152.21,211.1l47-.13c15.66.05,31.33,0,47,.13-15.66.1-31.33.08-47,.12Z" style="fill:#c7c7c7"></path><path d="M152.21,214.93l47-.13c15.66,0,31.33,0,47,.13-15.66.11-31.33.08-47,.12Z" style="fill:#c7c7c7"></path><path d="M152.21,218.76l47-.12c15.66,0,31.33,0,47,.12-15.66.11-31.33.08-47,.13Z" style="fill:#c7c7c7"></path><path d="M152.21,222.59l47-.12c15.66,0,31.33,0,47,.12-15.66.11-31.33.09-47,.13Z" style="fill:#c7c7c7"></path><path d="M152.21,226.43l47-.13c15.66,0,31.33,0,47,.13-15.66.1-31.33.08-47,.12Z" style="fill:#c7c7c7"></path><rect x="162.15" y="199.6" width="7.13" height="31.3" style="fill:#0071E3"></rect><rect x="175.37" y="186.36" width="7.13" height="44.53" style="fill:#455a64"></rect><rect x="188.59" y="195.9" width="7.13" height="35" style="fill:#a6a6a6"></rect><rect x="201.81" y="184.27" width="7.13" height="46.63" style="fill:#0071E3"></rect><rect x="215.03" y="190.52" width="7.13" height="40.37" style="fill:#455a64"></rect><rect x="228.25" y="213.4" width="7.13" height="17.5" style="fill:#a6a6a6"></rect><path d="M154.76,170.08l.19,15.21.14,15.2c.09,10.13.11,20.27.13,30.4l-.46-.46,22.86,0,22.86.06,22.85.15,22.86.28-22.86.27-22.85.15-22.86.06-22.86,0h-.47v-.47q0-15.19.13-30.4l.13-15.2Z" style="fill:#c7c7c7"></path><rect x="162.15" y="234.11" width="7.13" height="0.64" style="fill:#c7c7c7"></rect><rect x="175.37" y="234.11" width="7.13" height="0.64" style="fill:#c7c7c7"></rect><rect x="188.59" y="234.11" width="7.13" height="0.64" style="fill:#c7c7c7"></rect><rect x="201.81" y="234.11" width="7.13" height="0.64" style="fill:#c7c7c7"></rect><rect x="215.03" y="234.11" width="7.13" height="0.64" style="fill:#c7c7c7"></rect><rect x="228.25" y="234.11" width="7.13" height="0.64" style="fill:#c7c7c7"></rect><rect x="267.43" y="186.91" width="78.45" height="8.52" style="fill:#fff"></rect><rect x="270.27" y="189.33" width="34.49" height="3.69" style="fill:#455a64"></rect><path d="M256.44,191.44a1,1,0,0,1-2,.11h0a1.93,1.93,0,0,1,0-.24,2.47,2.47,0,0,1,.14-.84,1.45,1.45,0,0,1,.53-.7,1.22,1.22,0,0,1,.61-.19.23.23,0,0,1,.24.22.24.24,0,0,1-.22.24.66.66,0,0,0-.38.11.74.74,0,0,0-.26.29l-.06.1a1.06,1.06,0,0,1,.4-.08A1,1,0,0,1,256.44,191.44Zm-.45,0a.54.54,0,1,0-1.08,0,.54.54,0,0,0,1.08,0Z" style="fill:#263238"></path><path d="M257.08,191a1.8,1.8,0,0,1,.28-1,.87.87,0,0,1,1.52,0,1.71,1.71,0,0,1,.27,1,1.73,1.73,0,0,1-.27,1,.87.87,0,0,1-1.52,0A1.82,1.82,0,0,1,257.08,191Zm1.62,0a1.31,1.31,0,0,0-.2-.73.49.49,0,0,0-.38-.25.52.52,0,0,0-.39.25,1.4,1.4,0,0,0-.19.73,1.43,1.43,0,0,0,.19.73.52.52,0,0,0,.39.25.49.49,0,0,0,.38-.25A1.34,1.34,0,0,0,258.7,191Z" style="fill:#263238"></path><path d="M260,190.27h0a.68.68,0,1,1,1.35,0h0a.69.69,0,0,1-.68.73A.68.68,0,0,1,260,190.27Zm1,0h0a.38.38,0,0,0-.32-.42c-.19,0-.31.19-.31.41h0c0,.23.13.41.32.41S260.94,190.5,260.94,190.27Zm-.52,1.92,1.88-2.57a.15.15,0,0,1,.14-.07.16.16,0,0,1,.16.16.17.17,0,0,1,0,.1l-1.88,2.57a.18.18,0,0,1-.15.07.16.16,0,0,1-.16-.16A.18.18,0,0,1,260.42,192.19Zm1.26-.45h0a.69.69,0,0,1,.68-.73.68.68,0,0,1,.67.73h0a.68.68,0,1,1-1.35,0Zm1,0h0c0-.23-.13-.41-.32-.41s-.3.18-.3.41h0c0,.24.13.42.31.42S262.67,192,262.67,191.74Z" style="fill:#263238"></path><rect x="267.43" y="174.4" width="78.45" height="8.52" style="fill:#fff"></rect><rect x="270.27" y="176.82" width="17.01" height="3.69" style="fill:#0071E3"></rect><path d="M256,178.18a1,1,0,0,1,0,1.44,1,1,0,0,1-.72.3,1,1,0,0,1-.71-.3.24.24,0,0,1,0-.33.22.22,0,0,1,.32,0,.54.54,0,0,0,.39.16.55.55,0,0,0,.4-.16.54.54,0,0,0,.16-.39.51.51,0,0,0-.16-.39.54.54,0,0,0-.39-.16.21.21,0,0,1-.17-.08h0a.23.23,0,0,1,0-.33l.42-.43h-.67a.23.23,0,0,1,0-.46h1.21a.23.23,0,0,1,.23.23.2.2,0,0,1,0,.11.21.21,0,0,1,0,.06l-.51.53A.9.9,0,0,1,256,178.18Z" style="fill:#263238"></path><path d="M257,178.49a1.72,1.72,0,0,1,.28-1,.86.86,0,0,1,1.52,0,1.79,1.79,0,0,1,.27,1,1.84,1.84,0,0,1-.27,1,.87.87,0,0,1-1.52,0A1.76,1.76,0,0,1,257,178.49Zm1.62,0a1.31,1.31,0,0,0-.2-.73c-.12-.17-.25-.26-.38-.25a.48.48,0,0,0-.39.25,1.4,1.4,0,0,0-.19.73,1.36,1.36,0,0,0,.19.72.49.49,0,0,0,.39.26.48.48,0,0,0,.38-.26A1.28,1.28,0,0,0,258.57,178.49Z" style="fill:#263238"></path><path d="M259.82,177.76h0a.68.68,0,1,1,1.35,0h0a.69.69,0,0,1-.68.73A.68.68,0,0,1,259.82,177.76Zm1,0h0c0-.23-.13-.42-.31-.42s-.31.19-.31.41h0c0,.23.13.41.32.41S260.8,178,260.8,177.76Zm-.51,1.92,1.88-2.57a.16.16,0,0,1,.14-.08.16.16,0,0,1,.16.16.15.15,0,0,1,0,.11l-1.88,2.57a.15.15,0,0,1-.14.07.16.16,0,0,1-.16-.16A.15.15,0,0,1,260.29,179.68Zm1.26-.45h0a.68.68,0,1,1,1.35,0h0a.68.68,0,1,1-1.35,0Zm1,0h0c0-.23-.13-.42-.32-.42s-.31.19-.31.41h0a.38.38,0,0,0,.32.42C262.42,179.64,262.54,179.45,262.54,179.23Z" style="fill:#263238"></path><rect x="267.43" y="224.45" width="78.45" height="8.52" style="fill:#fff"></rect><rect x="270.27" y="226.87" width="58.86" height="3.69" style="fill:#0071E3"></rect><path d="M254.46,228.09a1,1,0,0,1,2-.1h0a1.85,1.85,0,0,1,0,.23,2.43,2.43,0,0,1-.14.84,1.4,1.4,0,0,1-.53.7,1.14,1.14,0,0,1-.61.2.23.23,0,0,1,0-.46.74.74,0,0,0,.38-.11.81.81,0,0,0,.26-.29.37.37,0,0,0,.05-.11.83.83,0,0,1-.39.09A1,1,0,0,1,254.46,228.09Zm.45,0a.54.54,0,1,0,1.08,0,.54.54,0,0,0-1.08,0Z" style="fill:#263238"></path><path d="M257.08,228.54a1.8,1.8,0,0,1,.28-1,.86.86,0,0,1,1.52,0,1.71,1.71,0,0,1,.27,1,1.76,1.76,0,0,1-.27,1,.87.87,0,0,1-1.52,0A1.85,1.85,0,0,1,257.08,228.54Zm1.62,0a1.29,1.29,0,0,0-.2-.73c-.12-.17-.25-.26-.38-.25s-.26.08-.39.25a1.48,1.48,0,0,0,0,1.45.51.51,0,0,0,.39.26.48.48,0,0,0,.38-.26A1.28,1.28,0,0,0,258.7,228.54Z" style="fill:#263238"></path><path d="M260,227.81h0a.68.68,0,1,1,1.35,0h0a.68.68,0,1,1-1.35,0Zm1,0h0a.37.37,0,0,0-.32-.41c-.19,0-.31.18-.31.41h0c0,.24.13.42.32.42S260.94,228,260.94,227.81Zm-.52,1.91,1.88-2.56a.16.16,0,0,1,.14-.08.16.16,0,0,1,.16.16.2.2,0,0,1,0,.11l-1.88,2.57a.18.18,0,0,1-.15.07.16.16,0,0,1-.16-.16A.21.21,0,0,1,260.42,229.72Zm1.26-.44h0a.69.69,0,0,1,.68-.73.68.68,0,0,1,.67.72h0a.68.68,0,1,1-1.35,0Zm1,0h0c0-.23-.13-.42-.32-.42s-.3.19-.3.41h0c0,.23.13.42.31.42S262.67,229.5,262.67,229.28Z" style="fill:#263238"></path><rect x="267.43" y="211.94" width="78.45" height="8.52" style="fill:#fff"></rect><rect x="270.27" y="214.35" width="52.9" height="3.69" style="fill:#455a64"></rect><path d="M256.37,216.48a1,1,0,1,1-2,0,1,1,0,0,1,.44-.81.66.66,0,0,1-.14-.41.68.68,0,0,1,1.36,0,.66.66,0,0,1-.14.41A1,1,0,0,1,256.37,216.48Zm-.45,0a.53.53,0,1,0-.53.53A.53.53,0,0,0,255.92,216.48Zm-.76-1.22a.23.23,0,1,0,.23-.22A.23.23,0,0,0,255.16,215.26Z" style="fill:#263238"></path><path d="M257,216a1.85,1.85,0,0,1,.28-1,.87.87,0,0,1,1.52,0,1.76,1.76,0,0,1,.28,1,1.72,1.72,0,0,1-.28,1,.86.86,0,0,1-1.52,0A1.8,1.8,0,0,1,257,216Zm1.62,0a1.34,1.34,0,0,0-.2-.73.47.47,0,0,0-.38-.25.53.53,0,0,0-.39.25,1.43,1.43,0,0,0-.19.73,1.4,1.4,0,0,0,.19.73.53.53,0,0,0,.39.25.47.47,0,0,0,.38-.25A1.31,1.31,0,0,0,258.65,216Z" style="fill:#263238"></path><path d="M259.9,215.3h0a.68.68,0,1,1,1.35,0h0a.68.68,0,1,1-1.35,0Zm1,0h0c0-.23-.13-.42-.32-.42s-.31.19-.31.41h0c0,.23.13.42.32.42S260.89,215.52,260.89,215.3Zm-.52,1.91,1.88-2.57a.15.15,0,0,1,.14-.07.16.16,0,0,1,.16.16.2.2,0,0,1,0,.11l-1.88,2.56a.19.19,0,0,1-.15.08.16.16,0,0,1-.16-.16A.21.21,0,0,1,260.37,217.21Zm1.26-.45h0a.7.7,0,0,1,.68-.74.68.68,0,0,1,.67.73h0a.69.69,0,0,1-.68.73A.68.68,0,0,1,261.63,216.76Zm1,0h0c0-.23-.13-.42-.32-.42s-.3.19-.3.41h0c0,.23.13.41.31.41S262.62,217,262.62,216.76Z" style="fill:#263238"></path><rect x="267.43" y="199.42" width="78.45" height="8.52" style="fill:#fff"></rect><rect x="270.27" y="201.84" width="44.9" height="3.69" style="fill:#0071E3"></rect><path d="M256.29,202.39l-1,2.42a.2.2,0,0,1-.21.13H255a.23.23,0,0,1-.12-.3l.88-2.1h-1.06a.22.22,0,0,1-.22-.23.22.22,0,0,1,.22-.22h1.45l.09,0v0h0l0,0s0,0,0,0v0l0,0v.13S256.29,202.38,256.29,202.39Z" style="fill:#263238"></path><path d="M256.77,203.51a1.8,1.8,0,0,1,.28-1,.94.94,0,0,1,.77-.45.92.92,0,0,1,.75.45,1.72,1.72,0,0,1,.28,1,1.74,1.74,0,0,1-.28,1,.92.92,0,0,1-.75.45.94.94,0,0,1-.77-.45A1.82,1.82,0,0,1,256.77,203.51Zm1.62,0a1.43,1.43,0,0,0-.19-.73.42.42,0,0,0-.77,0,1.43,1.43,0,0,0,0,1.46.42.42,0,0,0,.77,0A1.43,1.43,0,0,0,258.39,203.51Z" style="fill:#263238"></path><path d="M259.64,202.79h0a.7.7,0,0,1,.68-.74.68.68,0,0,1,.67.73h0a.68.68,0,1,1-1.35,0Zm1,0h0c0-.23-.13-.42-.32-.42s-.3.19-.3.41h0c0,.23.13.42.31.42S260.63,203,260.63,202.79Zm-.52,1.91,1.88-2.57a.15.15,0,0,1,.14-.07.17.17,0,0,1,.17.16.18.18,0,0,1,0,.1l-1.88,2.57a.17.17,0,0,1-.15.07.14.14,0,0,1-.15-.15A.18.18,0,0,1,260.11,204.7Zm1.26-.45h0a.69.69,0,0,1,.68-.73.68.68,0,0,1,.67.73h0a.69.69,0,0,1-.67.74A.69.69,0,0,1,261.37,204.25Zm1,0h0c0-.23-.13-.41-.31-.41s-.31.18-.31.41h0c0,.24.13.42.31.42S262.36,204.47,262.36,204.25Z" style="fill:#263238"></path></g><g id="freepik--Desk--inject-4"><polygon points="140.88 287.58 118.3 444.97 113.84 444.97 127.79 287.58 140.88 287.58" style="fill:#455a64"></polygon><polygon points="140.88 287.58 138.72 301.75 126.45 301.75 127.78 287.58 140.88 287.58" style="fill:#263238"></polygon><polygon points="360.56 287.58 383.14 444.97 387.6 444.97 373.65 287.58 360.56 287.58" style="fill:#455a64"></polygon><polygon points="360.56 287.58 362.72 301.75 374.99 301.75 373.66 287.58 360.56 287.58" style="fill:#263238"></polygon><rect x="105.44" y="277.05" width="290.55" height="7.45" style="fill:#455a64"></rect><rect x="109.66" y="284.5" width="282.12" height="3.08" style="fill:#263238"></rect></g><g id="freepik--Device--inject-4"><rect x="280.31" y="274.58" width="55" height="2.47" style="fill:#c7c7c7"></rect><rect x="280.31" y="274.58" width="27.68" height="2.47" style="fill:#a6a6a6"></rect><polygon points="305.01 277.05 251.41 277.05 244.4 240.64 298 240.64 305.01 277.05" style="fill:#c7c7c7"></polygon><path d="M278,258.84a2.94,2.94,0,0,1-3,3.26,3.64,3.64,0,0,1-3.55-3.26,2.94,2.94,0,0,1,3-3.26A3.64,3.64,0,0,1,278,258.84Z" style="fill:#a6a6a6"></path></g><g id="freepik--Plant--inject-4"><path d="M426.05,345.78a41.14,41.14,0,0,0,.8,15.82,43.12,43.12,0,0,0,2.42,7c1.26,2.89,2.57,5.72,2.26,8.89-.31.2.74.17.78-.14,8.46-4.82,19.31-5.7,25.82-13.58,3.09-3.73,4.65-8.46,5.38-13.19.8-5.15,1-10.85-.3-15.93-1.12-4.29-3.63-8.43-7.66-10.53s-9.62-2-14-.63C432.09,326.42,427.38,336.63,426.05,345.78Z" style="fill:#0071E3"></path><path d="M421.7,408.42c1.16-3.84,2.31-7.69,3.5-11.53,2.32-7.53,4.73-15,7.41-22.43q2.4-6.65,5.06-13.18a78.73,78.73,0,0,0-1-8.18c-.71-3.28-1.73-6.45-2.69-9.66-.06-.2.26-.3.34-.11,1.9,4.42,4.38,10.08,4.44,15.32q3.11-7.38,6.65-14.56A61.51,61.51,0,0,0,445,332a.15.15,0,0,1,.29-.06,43,43,0,0,1,.82,10.7q2.73-5.39,5.78-10.63c.18-.31.62,0,.46.32-3.18,6.12-6.13,12.37-8.9,18.71a40.68,40.68,0,0,1,13.27-7.68c.21-.08.37.23.15.31a48.39,48.39,0,0,0-14.35,9.51q-3,7-5.69,14c5.3-5.2,12.54-8.61,19.55-10.44.24-.07.31.3.08.37-8.12,2.44-14.42,7-20.59,12.57-.71,1.9-1.42,3.81-2.11,5.72q-3.92,10.89-7.46,21.89-1.71,5.28-3.36,10.57c-1.19,3.79-2.11,7.8-3.65,11.46-.15.35-.78.27-.7-.15C419.32,415.54,420.64,412,421.7,408.42Z" style="fill:#263238"></path><path d="M435.74,338.37a20.91,20.91,0,0,1,3.05,7.59c0,.07-.1.12-.12.05a65.34,65.34,0,0,0-3.31-7.46C435.24,338.3,435.6,338.15,435.74,338.37Z" style="fill:#263238"></path><path d="M450.84,356a22.28,22.28,0,0,1,7.59-2.56c.07,0,.12.1,0,.12-1.22.51-2.5.87-3.74,1.34s-2.45,1.06-3.7,1.49A.22.22,0,0,1,450.84,356Z" style="fill:#263238"></path><path d="M455.09,334.79a15.09,15.09,0,0,1,2.45-1.51.13.13,0,0,1,.14.21,15.33,15.33,0,0,1-2.41,1.57C455.11,335.15,454.94,334.89,455.09,334.79Z" style="fill:#263238"></path><path d="M397.52,374.52c6.09,1.81,12.22,3.48,18.31,5.27.53.16,10.84-19.59,7.11-29.76a33.21,33.21,0,0,0-20.72-19.66c-4.35-1.47-9.7-2.72-14.3-1.7-4.08.9-7,4.25-8.3,8.09-1.81,5.23-1.21,11.46-.22,16.8a29.34,29.34,0,0,0,6,13.7C388.63,371.11,392.76,373.11,397.52,374.52Z" style="fill:#0071E3"></path><path d="M388.68,355.75a80.83,80.83,0,0,0,11.95,4.71,49.56,49.56,0,0,1,8,2.89c-2.58-5.74-5.4-11.36-8.4-16.93-3.94-1.14-8.08-2.91-11-5.7a.17.17,0,0,1,.22-.26c3.25,2.3,6.83,3.68,10.43,5.23q-1.21-2.25-2.47-4.49c-.23-.42.34-.83.62-.42a127.56,127.56,0,0,1,8.66,14.54,65.89,65.89,0,0,0,.63-13.33c0-.11.16-.12.18,0a44.41,44.41,0,0,1-.15,14.64c2.14,4.27,4.08,8.64,5.83,13.07.7-2.66,1.6-5.28,2.2-8a36.49,36.49,0,0,0,.88-11.73.09.09,0,0,1,.18,0,41.4,41.4,0,0,1-2.56,21.54c1,2.67,2,5.34,2.88,8a159.78,159.78,0,0,1,8.09,42.29.26.26,0,0,1-.52,0,209.41,209.41,0,0,0-9.08-41.79c-1.77-5.32-3.8-10.48-6-15.54-3.6-1.06-7.19-2.51-10.73-3.73a33.79,33.79,0,0,1-9.88-4.85A.13.13,0,0,1,388.68,355.75Z" style="fill:#263238"></path><path d="M383,350c3.72,1.32,7.26,3.18,11,4.52.17.07.07.34-.1.31-3.94-.82-7.85-2-11-4.62C382.73,350.13,382.87,350,383,350Z" style="fill:#263238"></path><path d="M413.43,342c0-.2.25-.31.31-.11,1,3.43,1.73,7.08.73,10.59,0,.14-.25.15-.26,0C414,348.91,414.23,345.46,413.43,342Z" style="fill:#263238"></path><path d="M398,334a9.09,9.09,0,0,1,1.62,5.84c0,.13-.22.21-.25.05-.46-2-1.22-3.75-1.82-5.66A.26.26,0,0,1,398,334Z" style="fill:#263238"></path><path d="M470,383.23c-1.79,5.67-6,13.51-12.76,13.57-4.36,0-8.75-.47-13.12-.53-4.68-.08-9.37-.07-14,.21-.38,0,.56-14,11.81-20.84,3.15-1.92,7-2.52,10.58-3.3A48.7,48.7,0,0,1,465,371c2.58.1,4.73.65,5.65,3.3S470.88,380.53,470,383.23Z" style="fill:#0071E3"></path><path d="M465.18,376.13c-2.73.7-5.49,1.51-8.23,2.38a29.46,29.46,0,0,1,2.26-2.21c1.18-1,2.48-1.76,3.74-2.62.11-.07,0-.27-.09-.22a15.34,15.34,0,0,0-6.63,5.28c-3.42,1.1-6.81,2.32-10.07,3.66a38.22,38.22,0,0,0-6.44,3.39,26.34,26.34,0,0,1,2.33-4.06c1.49-1.93,3.51-3,5.47-4.38a.18.18,0,0,0-.18-.3,16,16,0,0,0-8.77,9.51,36.93,36.93,0,0,0-6.38,5.79c-7.44,8.45-13.3,19.7-13.32,31.17,0,.28.44.35.49.07a63.56,63.56,0,0,1,14.19-30.48c.53-.62,1.08-1.21,1.64-1.79a52.35,52.35,0,0,1,6.14-.45c2.4,0,4.77.35,7.16.54,3.92.32,8.26.37,11.81-1.61.15-.08.05-.36-.13-.29-7.89,2.87-16.17-.77-24.09.94a37,37,0,0,1,11.67-7.53l.73-.29c5.07.61,10.42,1.93,15.35.28a.12.12,0,1,0-.07-.23c-4.76,1.19-9.34-.31-14-.54,5.12-2,10.34-3.59,15.48-5.57C465.64,376.41,465.65,376,465.18,376.13Z" style="fill:#263238"></path><path d="M467.42,381.12a67.68,67.68,0,0,1-7.38.56.05.05,0,0,0,0,.1,15.28,15.28,0,0,0,7.44-.47A.1.1,0,0,0,467.42,381.12Z" style="fill:#263238"></path><path d="M450.76,376.26a11.9,11.9,0,0,0-3.65,2.53c-.13.12,0,.35.18.24.62-.45,1.26-.87,1.9-1.29a17.18,17.18,0,0,0,1.78-1.12A.22.22,0,0,0,450.76,376.26Z" style="fill:#263238"></path><path d="M411.05,394.52c.08.18-.19.36-.29.16h0a.26.26,0,0,1-.18.11,110.62,110.62,0,0,1-13.74,2.4c-3.71.33-8,.54-11.25-1.62-4.42-2.92-7.32-10.74-4.93-15.71,2.82-5.9,11.32-2.7,15.59-.6A31.27,31.27,0,0,1,411.05,394.52Z" style="fill:#0071E3"></path><path d="M414.35,397.24a43.94,43.94,0,0,0-8.21-6.24,27.92,27.92,0,0,0-8.32-8.48c-.16-.11-.29.14-.15.26a37.32,37.32,0,0,1,7,7.37,77,77,0,0,0-10.29-4.68,13.66,13.66,0,0,0-5.53-5.54s-.1,0-.06.08a22.58,22.58,0,0,1,5,5.24c-2.09-.78-4.21-1.51-6.32-2.21-.19-.06-.26.22-.08.3,3.76,1.46,7.6,3,11.33,4.8a43.85,43.85,0,0,1-13.72,0c-.12,0-.18.16-.05.19a27,27,0,0,0,14.55.22,70.38,70.38,0,0,1,6.9,3.86,17.35,17.35,0,0,0-5.58.46,42,42,0,0,1-9.8,1.11c-.12,0-.16.2,0,.22,5.69,1,11.06-1.6,16.7-.93a41.63,41.63,0,0,1,14.43,16.87c2.37,4.83,3.66,9.95,5.57,14.93a.18.18,0,0,0,.35-.09C426.41,415.1,421.51,404.25,414.35,397.24Z" style="fill:#263238"></path><path d="M397.2,383.75a6.47,6.47,0,0,0-1.46-1.76,5.58,5.58,0,0,0-1.68-1.26c-.05,0-.09.06-.05.1.46.52,1.11.91,1.62,1.42s.92,1.11,1.44,1.61C397.14,383.93,397.24,383.84,397.2,383.75Z" style="fill:#263238"></path><path d="M387.82,386.81c-.84-.21-1.74-.2-2.59-.37a24.37,24.37,0,0,1-2.52-.76.1.1,0,0,0-.07.19,8.31,8.31,0,0,0,5.18,1.2C388,387.05,388,386.84,387.82,386.81Z" style="fill:#263238"></path><polygon points="437.78 412.82 437.03 421.29 434.5 449.91 412.08 449.91 408.92 421.29 407.99 412.82 437.78 412.82" style="fill:#455a64"></polygon><polygon points="437.78 412.82 437.03 421.29 408.92 421.29 407.99 412.82 437.78 412.82" style="fill:#263238"></polygon><rect x="405.77" y="410.51" width="34.23" height="6.88" style="fill:#455a64"></rect></g></svg>