<svg xmlns="http://www.w3.org/2000/svg" version="1.1" xmlns:xlink="http://www.w3.org/1999/xlink" xmlns:svgjs="http://svgjs.dev/svgjs" viewBox="0 0 800 800"><defs><linearGradient x1="50%" y1="0%" x2="50%" y2="100%" id="ccchaos-grad"><stop stop-color="hsl(212, 72%, 59%)" stop-opacity="1" offset="0%"></stop><stop stop-color="hsl(212, 49%, 63%)" stop-opacity="1" offset="100%"></stop></linearGradient></defs><g stroke-width="2" stroke="hsl(205, 51%, 73%)" fill="none" stroke-linecap="round"><path d="M395.12 124.25C404.87 120.98 414.81 117.67 424.91 114.63 435.04 111.64 445.36 109.52 455.85 108.51 466.4 108.31 477.14 109.54 488.04 112.21 499 115.9 510.1 120.92 521.29 127.09 532.47 133.9 543.66 141.47 554.76 149.54 565.69 157.63 576.37 165.82 586.62 173.93 596.46 181.54 605.64 188.85 613.98 195.8 621.62 202.05 628.17 207.95 633.48 213.56 639.41 220.98 643.27 235 641.62 242.16 639.88 246.89 637.54 252.01 634.92 257.56 632.93 263.15 631.35 269.23 630.54 275.8 631.27 282.46 633.32 289.61 636.86 297.21 642.33 304.9 649.29 313 657.56 321.45 667.15 329.94 677.35 338.75 687.6 347.82 697.69 356.9 706.69 366.21 713.98 375.73 719.48 385.24 722.29 394.73 722.31 404.2 720.04 413.7 715.14 423.21 707.96 432.77 699.23 442.42 689.04 452.19 677.94 462.13 666.65 472.25 655.37 482.63 644.53 493.29 634.68 504.21 625.82 515.48 618.1 527.08 611.85 538.91 606.78 551.02 602.75 563.29 600 575.57 597.95 587.79 596.35 599.72 595.47 611.21 594.58 622 593.45 631.79 591.66 644.22 584.27 658.9 578.2 660.49 573.46 659.7 567.82 657.35 561.36 653.75 554.53 649.95 546.98 645.81 538.8 641.88 530.37 639.26 521.44 637.88 512.11 638.19 502.64 640.89 492.87 645.69 482.9 652.51 472.87 661.42 462.69 671.62 452.42 682.44 442.14 693.44 431.79 703.48 421.42 711.66 411.04 717.7 400.87 720.55 390.9 720.04 380.92 716.72 371.12 710.36 361.5 701.52 351.83 691.12 342.28 679.52 332.87 667.47 323.37 655.86 313.95 645.04 304.61 635.47 295.15 627.7 285.75 621.62 276.41 617.21 266.96 614.74 257.57 613.57 248.27 613.35 238.92 614.26 229.71 615.39 220.69 616.35 211.72 617.4 203.03 617.65 194.7 616.88 186.57 615.5 178.89 612.83 171.77 608.86 164.97 604.04 158.8 597.98 153.32 590.8 148.22 582.92 143.84 574.14 140.19 564.66 136.86 554.74 134.19 544.35 132.15 533.66 130.25 522.77 128.84 511.74 127.86 500.71 126.76 489.62 125.93 478.62 125.31 467.76 124.34 456.92 123.47 446.25 122.68 435.81 121.45 425.39 120.3 415.19 119.26 405.24 117.89 395.29 116.8 385.8 116.06 376.78 115.26 367.72 114.99 359.09 115.32 350.87 115.87 342.59 117.16 334.66 119.22 327.07 121.67 319.35 124.93 311.88 128.97 304.62 133.4 297.13 138.57 289.74 144.38 282.39 150.45 274.7 157.05 266.93 164.07 259.03 171.15 250.71 178.51 242.19 186.08 233.46 193.51 224.32 201.05 215.01 208.65 205.6 215.98 195.98 223.34 186.43 230.7 177.12 237.77 167.99 244.88 159.4 252.03 151.53 258.92 144.29 265.92 138.07 273.04 133.02 279.97 128.85 287.1 125.95 294.45 124.31 301.66 123.4 309.15 123.51 316.93 124.48 324.63 125.55 332.65 126.99 341 128.51 349.31 129.36 357.97 129.82 366.98 129.74 375.98 128.53 385.35 126.67 395.11 124.25" stroke-dasharray="0 0" transform="rotate(0, 400, 400)" opacity="1.00"></path><path d="M401.42 135.55C410.95 132.32 420.65 129.06 430.51 126.04 440.39 123.03 450.44 120.81 460.64 119.6 470.88 119.13 481.27 119.99 491.76 122.21 502.26 125.4 512.83 129.89 523.39 135.54 533.89 141.87 544.29 149.03 554.48 156.78 564.45 164.68 574.04 172.8 583.11 180.95 591.74 188.76 599.64 196.36 606.65 203.68 613 210.4 618.29 216.78 622.4 222.87 626.82 231.01 628.81 245.99 626.96 253.33 624.41 260.54 619.72 276.46 619.36 285.4 620.87 291.53 623.61 298.1 627.71 305.12 633.52 312.17 640.63 319.65 648.84 327.51 658.17 335.4 667.95 343.65 677.68 352.23 687.2 360.81 695.67 369.71 702.54 378.9 707.78 388.1 710.56 397.38 710.77 406.74 708.91 416.12 704.59 425.63 698.12 435.26 690.18 444.98 680.77 454.89 670.38 465.01 659.68 475.27 648.81 485.8 638.18 496.6 628.29 507.56 619.17 518.8 610.99 530.26 604.09 541.8 598.22 553.46 593.34 565.1 589.66 576.57 586.71 587.78 584.3 598.49 582.67 608.62 581.19 617.9 579.65 626.06 574.2 641.17 559.17 643.65 551.18 638.81 545.3 635.36 538.71 631.85 531.48 628.75 524.02 627.05 516.01 626.61 507.56 627.8 498.96 631.21 489.99 636.49 480.73 643.54 471.41 652.41 461.85 662.32 452.12 672.68 442.38 683.13 432.49 692.62 422.49 700.37 412.48 706.15 402.6 709 392.87 708.78 383.11 705.96 373.48 700.31 363.97 692.29 354.41 682.71 344.95 671.84 335.58 660.36 326.14 649.07 316.76 638.28 307.44 628.43 298.05 620.08 288.71 613.19 279.43 607.79 270.1 604.17 260.85 601.85 251.72 600.56 242.6 600.48 233.65 600.85 224.93 601.31 216.32 602.12 208.03 602.45 200.13 602.05 192.46 601.32 185.28 599.54 178.66 596.65 172.38 593.12 166.72 588.44 161.74 582.7 157.12 576.31 153.18 569.01 149.94 560.93 146.98 552.4 144.63 543.29 142.87 533.75 141.2 523.96 139.97 513.91 139.13 503.73 138.14 493.44 137.39 483.11 136.81 472.84 135.87 462.55 135.01 452.35 134.21 442.32 132.97 432.28 131.78 422.41 130.7 412.74 129.28 403.06 128.11 393.8 127.27 384.93 126.36 376.04 125.96 367.51 126.12 359.32 126.48 351.07 127.55 343.1 129.36 335.38 131.54 327.52 134.5 319.84 138.24 312.28 142.37 304.49 147.22 296.74 152.72 288.96 158.52 280.87 164.85 272.67 171.64 264.34 178.54 255.65 185.76 246.79 193.22 237.77 200.61 228.47 208.14 219.09 215.76 209.71 223.17 200.28 230.62 191.04 238.09 182.16 245.31 173.59 252.55 165.64 259.82 158.49 266.85 152.02 273.95 146.57 281.15 142.28 288.15 138.81 295.31 136.52 302.64 135.4 309.84 134.88 317.26 135.26 324.94 136.37 332.52 137.49 340.39 138.87 348.57 140.29 356.7 141.01 365.16 141.33 373.96 141.13 382.74 139.85 391.89 137.96 401.41 135.55" stroke-dasharray="0 0" transform="rotate(4.04, 400, 400)" opacity="0.96"></path><path d="M407.62 146.84C416.89 143.68 426.32 140.47 435.88 137.47 445.46 134.45 455.17 132.15 464.98 130.78 474.8 130.05 484.72 130.56 494.67 132.35 504.59 135.04 514.5 139 524.31 144.09 534 149.91 543.5 156.59 552.69 163.94 561.62 171.55 570.09 179.49 577.96 187.58 585.39 195.46 592.06 203.25 597.84 210.84 603.03 217.94 607.21 224.76 610.31 231.31 613.51 240.18 614.27 256.38 612.49 264.1 610.49 271.5 607.81 287.19 608.63 295.75 610.85 301.54 614.2 307.73 618.77 314.32 624.85 320.91 632.04 327.91 640.14 335.31 649.17 342.71 658.51 350.5 667.72 358.67 676.68 366.84 684.64 375.37 691.1 384.27 696.09 393.17 698.82 402.23 699.21 411.45 697.71 420.69 693.94 430.12 688.15 439.73 680.97 449.4 672.34 459.3 662.68 469.42 652.61 479.63 642.23 490.08 631.9 500.74 622.1 511.48 612.86 522.39 604.38 533.39 596.96 544.35 590.44 555.26 584.8 565.98 580.27 576.41 576.47 586.39 573.24 595.72 570.82 604.39 568.66 612.11 566.59 618.66 560.6 629.58 546.87 628.66 539.88 624.05 534.76 621.1 528.98 618.3 522.58 616.08 515.98 615.28 508.82 615.75 501.17 617.74 493.4 621.76 485.2 627.44 476.65 634.65 468.03 643.41 459.12 653.01 449.95 662.9 440.77 672.8 431.36 681.75 421.78 689.07 412.19 694.6 402.65 697.45 393.18 697.47 383.71 695.13 374.29 690.15 364.95 682.91 355.58 674.15 346.26 664.05 337 653.19 327.7 642.32 318.44 631.68 309.24 621.73 300 612.97 290.81 605.41 281.71 599.16 272.59 594.52 263.59 591.1 254.73 588.73 245.93 587.61 237.34 587.09 229.02 586.86 220.85 587.19 213.02 587.3 205.62 586.96 198.48 586.53 191.83 585.31 185.76 583.21 180.01 580.65 174.87 577.09 170.4 572.56 166.25 567.51 162.76 561.55 159.9 554.8 157.29 547.63 155.25 539.8 153.73 531.46 152.27 522.84 151.21 513.86 150.48 504.62 149.59 495.25 148.88 485.73 148.33 476.15 147.42 466.52 146.55 456.9 145.73 447.34 144.48 437.77 143.27 428.29 142.14 418.92 140.67 409.54 139.45 400.5 138.52 391.77 137.52 383.02 136.98 374.55 136.99 366.34 137.17 358.07 138.02 350 139.58 342.1 141.49 334.07 144.16 326.14 147.56 318.27 151.37 310.19 155.88 302.08 161.05 293.93 166.52 285.5 172.56 276.96 179.07 268.3 185.73 259.37 192.75 250.33 200.04 241.2 207.33 231.91 214.79 222.64 222.37 213.48 229.81 204.4 237.31 195.63 244.85 187.32 252.17 179.4 259.53 172.19 266.91 165.82 274.08 160.14 281.3 155.47 288.59 151.92 295.69 149.12 302.92 147.4 310.28 146.72 317.51 146.54 324.92 147.14 332.54 148.34 340.07 149.47 347.85 150.78 355.9 152.06 363.9 152.64 372.2 152.83 380.81 152.5 389.4 151.16 398.33 149.24 407.61 146.85" stroke-dasharray="0 0" transform="rotate(8.08, 400, 400)" opacity="0.92"></path><path d="M413.21 158.14C422.22 155.03 431.33 151.89 440.53 148.94 449.74 145.92 459.03 143.56 468.36 142.04 477.69 141.08 487.03 141.26 496.33 142.63 505.58 144.84 514.73 148.26 523.69 152.79 532.51 158.05 541.05 164.21 549.2 171.09 557.07 178.32 564.42 185.98 571.14 193.89 577.44 201.72 582.99 209.57 587.67 217.32 591.84 224.7 595.1 231.87 597.39 238.8 599.22 245.25 600.15 251.49 600.26 257.53 599.8 265.9 597.02 281.93 595.88 289.95 596.03 295.16 596.79 300.61 598.35 306.34 601.2 311.97 605.08 317.94 610.03 324.27 616.3 330.56 623.5 337.23 631.44 344.3 640.14 351.34 649.03 358.78 657.72 366.61 666.14 374.43 673.6 382.65 679.67 391.26 684.4 399.88 687.08 408.71 687.61 417.74 686.45 426.78 683.19 436.04 678.05 445.49 671.59 454.99 663.73 464.71 654.82 474.62 645.41 484.57 635.58 494.7 625.64 504.96 616.05 515.22 606.83 525.54 598.17 535.81 590.39 545.93 583.36 555.87 577.09 565.45 571.82 574.65 567.23 583.28 563.22 591.15 558.57 601.45 551.11 615.19 547.49 618.18 543.81 618.66 534.13 613.7 527.83 609.58 520.72 606.24 503.33 604.63 493.2 607.99 486.17 612.53 478.69 618.52 470.81 625.82 462.87 634.42 454.59 643.68 445.99 653.1 437.38 662.44 428.49 670.87 419.35 677.77 410.21 683.06 401.06 685.88 391.91 686.13 382.77 684.23 373.64 679.88 364.53 673.4 355.42 665.44 346.32 656.12 337.26 645.94 328.19 635.57 319.14 625.21 310.15 615.29 301.16 606.29 292.23 598.24 283.4 591.3 274.61 585.75 265.94 581.34 257.46 577.94 249.08 575.76 240.93 574.27 233.09 573.23 225.43 572.88 218.14 572.53 211.29 571.98 201.68 571.06 185.62 565.65 179.34 560.71 175.66 556.74 172.58 551.94 170.1 546.36 167.82 540.42 166.04 533.8 164.75 526.61 163.47 519.17 162.54 511.26 161.91 503.01 161.08 494.61 160.41 485.96 159.87 477.14 158.96 468.26 158.09 459.28 157.25 450.25 155.98 441.22 154.74 432.16 153.57 423.13 152.08 414.09 150.8 405.28 149.8 396.7 148.71 388.09 148.07 379.68 147.93 371.44 147.94 363.15 148.59 354.98 149.9 346.91 151.53 338.72 153.9 330.56 156.98 322.42 160.44 314.09 164.59 305.72 169.39 297.28 174.52 288.63 180.21 279.89 186.39 271.06 192.76 262.06 199.52 253 206.59 243.95 213.71 234.85 221.03 225.87 228.51 217.11 235.91 208.53 243.4 200.36 250.95 192.74 258.34 185.58 265.77 179.15 273.23 173.6 280.5 168.72 287.83 164.82 295.21 161.96 302.42 159.77 309.72 158.57 317.13 158.29 324.4 158.38 331.83 159.14 339.43 160.39 346.94 161.49 354.66 162.7 362.6 163.83 370.5 164.26 378.65 164.3 387.08 163.86 395.48 162.45 404.19 160.52 413.2 158.14" stroke-dasharray="0 0" transform="rotate(12.12, 400, 400)" opacity="0.89"></path><path d="M417.75 169.44C426.46 166.4 435.22 163.33 444.01 160.42 452.79 157.43 461.6 155.03 470.38 153.38 479.14 152.22 487.84 152.1 496.42 153.07 504.94 154.81 513.27 157.71 521.34 161.67 529.25 166.35 536.82 171.94 543.94 178.29 550.79 185.06 557.08 192.33 562.74 199.95 568.02 207.61 572.57 215.39 576.33 223.17 579.67 230.71 582.19 238.11 583.88 245.34 585.25 252.17 585.9 258.82 585.89 265.28 585.58 274.3 584.09 291.44 583.95 299.84 584.81 305.24 586.27 310.81 588.49 316.58 591.9 322.22 596.23 328.13 601.47 334.34 607.86 340.48 615.01 346.96 622.73 353.8 631.08 360.6 639.51 367.78 647.68 375.34 655.57 382.88 662.54 390.82 668.23 399.17 672.72 407.51 675.33 416.07 675.99 424.83 675.13 433.61 672.34 442.59 667.82 451.75 662.06 460.94 654.94 470.3 646.77 479.8 638.06 489.3 628.82 498.9 619.36 508.53 610.07 518.08 601 527.58 592.31 536.91 584.31 546.02 576.91 554.81 570.16 563.13 564.26 571.03 558.99 578.27 554.27 584.69 543.86 597.84 530.95 604 526.32 601.84 521.37 598.93 508.98 593.28 501.43 592.22 496.13 593.13 490.31 595.2 484.01 598.54 477.62 603.51 470.77 609.73 463.52 617.04 456.2 625.43 448.51 634.32 440.48 643.26 432.42 652.07 424.05 659.98 415.39 666.48 406.73 671.51 398 674.3 389.23 674.74 380.48 673.25 371.69 669.5 362.89 663.74 354.11 656.57 345.31 648.04 336.54 638.57 327.79 628.77 319.05 618.81 310.38 609.05 301.73 599.97 293.16 591.6 284.72 584.13 276.34 577.85 268.11 572.56 260.1 568.22 252.21 565.03 244.59 562.56 237.3 560.63 230.21 559.47 223.5 558.49 217.24 557.49 208.51 556.27 194.13 551.59 188.59 547.58 184.01 542.47 177.77 528.24 175.91 519.31 174.78 512.94 173.96 506.06 173.39 498.76 172.61 491.32 171.97 483.55 171.42 475.51 170.51 467.41 169.62 459.11 168.75 450.65 167.47 442.19 166.21 433.61 165.01 424.94 163.49 416.28 162.17 407.73 161.12 399.31 159.96 390.88 159.22 382.55 158.94 374.32 158.79 366.04 159.24 357.81 160.32 349.61 161.69 341.32 163.75 333.02 166.49 324.7 169.6 316.24 173.38 307.72 177.8 299.14 182.54 290.42 187.85 281.64 193.66 272.83 199.7 263.93 206.14 255.06 212.92 246.27 219.79 237.54 226.92 229.02 234.22 220.82 241.5 212.88 248.91 205.42 256.41 198.57 263.79 192.22 271.23 186.62 278.72 181.89 286.06 177.79 293.44 174.62 300.87 172.41 308.16 170.78 315.52 170.02 322.96 170.06 330.29 170.38 337.73 171.23 345.31 172.49 352.8 173.52 360.47 174.61 368.31 175.58 376.11 175.86 384.13 175.76 392.36 175.2 400.58 173.74 409.04 171.79 417.74 169.44" stroke-dasharray="0 0" transform="rotate(16.16, 400, 400)" opacity="0.85"></path><path d="M420.9 180.73C429.27 177.77 437.63 174.78 445.95 171.94 454.27 168.99 462.54 166.56 470.72 164.81 478.86 163.47 486.88 163.07 494.71 163.68 502.46 164.98 509.96 167.35 517.14 170.75 524.16 174.84 530.79 179.83 536.93 185.61 542.83 191.84 548.18 198.64 552.89 205.87 557.3 213.24 561.02 220.82 564.03 228.5 566.72 236.05 568.71 243.56 570.01 250.96 571.12 258.07 571.65 265.03 571.7 271.83 571.81 278.29 571.66 284.62 571.4 290.85 571.57 296.77 571.93 302.67 572.61 308.58 574.13 314.27 576.24 320.04 579.06 325.95 582.94 331.72 587.61 337.69 593.07 343.89 599.5 350 606.54 356.4 614.02 363.1 621.98 369.76 629.94 376.75 637.61 384.09 644.98 391.41 651.48 399.09 656.79 407.15 661.03 415.21 663.57 423.47 664.34 431.89 663.75 440.32 661.41 448.92 657.45 457.66 652.35 466.4 645.96 475.25 638.53 484.16 630.53 493.04 621.93 501.92 613 510.74 604.12 519.43 595.29 527.95 586.71 536.2 578.64 544.18 571.02 551.75 563.92 558.77 557.54 565.36 551.7 571.25 546.37 576.32 534.01 586 518.92 589.08 514.01 586.9 508.98 584.49 497.1 580.88 490.07 581.07 485.18 582.75 479.82 585.49 474.02 589.38 468.16 594.68 461.86 601.05 455.15 608.3 448.4 616.45 441.26 624.95 433.76 633.39 426.24 641.67 418.38 649.08 410.22 655.18 402.05 659.96 393.77 662.71 385.44 663.33 377.11 662.2 368.73 659 360.32 653.94 351.93 647.54 343.52 639.79 335.13 631.06 326.78 621.9 318.45 612.41 310.18 602.95 301.98 593.93 293.86 585.42 285.89 577.59 278.01 570.74 270.31 564.73 262.84 559.56 255.52 555.44 248.49 552.03 241.79 549.2 232.26 546.29 215.74 541.98 208.91 539.71 203 537.19 194.18 529.39 191.19 523.88 188.8 517.45 185.82 501.4 184.93 491.99 184.18 485.45 183.54 478.5 182.97 471.22 182.05 463.88 181.14 456.25 180.25 448.39 178.95 440.51 177.67 432.43 176.45 424.17 174.91 415.9 173.57 407.66 172.46 399.46 171.25 391.25 170.42 383.06 170.02 374.89 169.73 366.69 170 358.48 170.85 350.26 171.96 341.97 173.73 333.64 176.14 325.27 178.89 316.82 182.29 308.31 186.3 299.76 190.64 291.15 195.54 282.51 200.94 273.9 206.59 265.3 212.67 256.79 219.1 248.45 225.67 240.25 232.51 232.34 239.58 224.83 246.66 217.63 253.91 210.97 261.26 204.95 268.56 199.43 275.95 194.67 283.38 190.74 290.72 187.38 298.11 184.89 305.54 183.27 312.86 182.12 320.23 181.74 327.67 182.04 335.02 182.51 342.45 183.42 349.98 184.63 357.45 185.57 365.04 186.51 372.76 187.31 380.45 187.44 388.3 187.19 396.32 186.52 404.33 185.01 412.52 183.06 420.89 180.74" stroke-dasharray="0 0" transform="rotate(20.200000000000003, 400, 400)" opacity="0.81"></path><path d="M422.39 192.03C430.39 189.15 438.32 186.25 446.14 183.47 453.96 180.58 461.66 178.15 469.21 176.32 476.72 174.82 484.04 174.18 491.11 174.45 498.1 175.34 504.79 177.22 511.12 180.07 517.31 183.56 523.06 187.94 528.34 193.1 533.4 198.75 537.92 205.01 541.85 211.75 545.54 218.72 548.62 225.98 551.07 233.43 553.3 240.84 554.95 248.31 556.04 255.75 557.06 262.99 557.65 270.14 557.89 277.18 558.29 283.94 558.56 290.6 558.82 297.15 559.57 303.43 560.55 309.66 561.89 315.86 564.01 321.86 566.7 327.89 570.02 333.99 574.28 339.95 579.22 346.04 584.8 352.3 591.21 358.47 598.08 364.86 605.27 371.48 612.84 378.06 620.33 384.92 627.49 392.07 634.35 399.19 640.4 406.64 645.36 414.39 649.35 422.15 651.81 430.05 652.67 438.07 652.32 446.09 650.38 454.22 646.95 462.42 642.48 470.59 636.79 478.81 630.09 487 622.79 495.13 614.86 503.17 606.52 511.05 598.12 518.78 589.64 526.24 581.28 533.34 573.27 540.17 565.58 546.52 558.28 552.28 551.57 557.64 545.3 562.3 539.48 566.17 531.83 570.83 518.9 575.23 513.2 575.14 502.69 572.33 485.56 569.07 478.82 570.45 474.19 572.82 469.17 576.15 463.75 580.47 458.29 586.03 452.43 592.46 446.19 599.6 439.92 607.46 433.27 615.54 426.27 623.5 419.26 631.24 411.9 638.17 404.23 643.89 396.56 648.41 388.77 651.11 380.9 651.87 373.04 651.09 365.12 648.4 357.16 643.99 349.23 638.32 341.28 631.35 333.35 623.38 325.47 614.9 317.63 605.97 309.86 596.91 302.17 588.1 294.59 579.6 287.17 571.59 279.86 564.34 272.75 557.78 265.88 551.94 259.18 547.01 252.77 542.74 246.71 539.05 238.13 534.86 223.42 528.57 217.42 525.74 208.44 519.35 200 505.29 198.61 498.67 197.35 491.35 195.44 474.18 194.53 464.5 193.59 457.86 192.65 450.88 191.73 443.59 190.42 436.29 189.13 428.71 187.88 420.88 186.34 413.05 184.98 405.16 183.84 397.23 182.58 389.3 181.68 381.32 181.18 373.31 180.76 365.28 180.86 357.19 181.49 349.07 182.36 340.91 183.84 332.69 185.92 324.43 188.32 316.14 191.33 307.82 194.93 299.48 198.85 291.15 203.32 282.85 208.29 274.63 213.51 266.5 219.17 258.52 225.2 250.79 231.4 243.26 237.9 236.08 244.65 229.35 251.46 222.97 258.46 217.15 265.6 211.99 272.73 207.3 279.96 203.34 287.27 200.18 294.52 197.51 301.84 195.63 309.19 194.52 316.47 193.78 323.81 193.7 331.19 194.19 338.5 194.75 345.87 195.66 353.32 196.8 360.71 197.62 368.19 198.4 375.76 199.02 383.31 198.98 390.96 198.6 398.73 197.83 406.49 196.27 414.38 194.31 422.38 192.03" stroke-dasharray="0 0" transform="rotate(24.24, 400, 400)" opacity="0.77"></path><path d="M422.11 203.33C429.71 200.54 437.17 197.73 444.48 195.04 451.78 192.21 458.9 189.79 465.82 187.91 472.69 186.29 479.33 185.44 485.67 185.41 491.94 185.91 497.88 187.33 503.43 189.64 508.86 192.55 513.85 196.32 518.38 200.85 522.73 205.87 526.58 211.53 529.9 217.71 533.04 224.17 535.65 231 537.72 238.08 539.68 245.23 541.16 252.51 542.22 259.84 543.29 267.07 544.06 274.27 544.6 281.4 545.38 288.35 546.12 295.21 546.93 301.99 548.25 308.55 549.82 315.05 551.76 321.5 554.44 327.77 557.61 334.04 561.35 340.34 565.9 346.5 571.01 352.74 576.65 359.08 582.97 365.34 589.63 371.75 596.5 378.33 603.65 384.86 610.67 391.61 617.34 398.57 623.71 405.52 629.31 412.71 633.92 420.14 637.68 427.57 640.04 435.08 640.98 442.63 640.84 450.18 639.26 457.76 636.33 465.33 632.45 472.87 627.42 480.36 621.42 487.75 614.84 495.05 607.59 502.19 599.87 509.08 592.01 515.8 583.98 522.2 575.94 528.18 568.12 533.89 560.5 539.1 553.14 543.71 546.24 547.97 539.69 551.57 533.51 554.44 525.17 557.83 510.68 560.59 504.24 560.23 498.38 559.39 486.84 557.16 480.84 556.71 474.76 557.88 461.24 565.23 453.68 571.81 448.52 577.52 443.01 583.95 437.16 590.91 431.29 598.45 425.07 606.11 418.53 613.57 411.97 620.8 405.09 627.25 397.91 632.59 390.74 636.87 383.44 639.49 376.06 640.39 368.7 639.9 361.28 637.69 353.82 633.89 346.4 628.93 338.97 622.72 331.57 615.51 324.22 607.74 316.93 599.44 309.73 590.87 302.62 582.39 295.63 574.05 288.82 566.02 282.12 558.56 275.64 551.63 269.42 545.27 263.36 539.68 257.6 534.68 252.19 530.22 244.55 524.8 231.61 516.36 226.4 512.76 218.64 505.75 211.35 492.38 210.12 486.43 208.95 479.93 207.04 464.57 206.07 455.79 205.11 449.77 204.15 443.38 203.19 436.64 201.88 429.89 200.57 422.81 199.32 415.43 197.78 408.05 196.41 400.55 195.24 392.96 193.96 385.37 193.01 377.68 192.41 369.93 191.89 362.17 191.83 354.34 192.26 346.45 192.9 338.55 194.11 330.6 195.87 322.62 197.92 314.66 200.55 306.69 203.74 298.75 207.23 290.87 211.25 283.07 215.76 275.41 220.53 267.89 225.73 260.59 231.32 253.58 237.09 246.82 243.18 240.46 249.55 234.57 256.01 229.04 262.68 224.09 269.53 219.77 276.4 215.89 283.4 212.69 290.49 210.22 297.57 208.18 304.72 206.82 311.92 206.14 319.08 205.73 326.29 205.87 333.53 206.48 340.74 207.08 347.99 207.95 355.29 208.97 362.55 209.65 369.86 210.25 377.23 210.69 384.59 210.49 392.01 209.98 399.49 209.11 406.96 207.51 414.51 205.57 422.1 203.33" stroke-dasharray="0 0" transform="rotate(28.28, 400, 400)" opacity="0.73"></path><path d="M420.08 214.62C427.25 211.93 434.23 209.22 441.02 206.62 447.79 203.88 454.34 201.49 460.64 199.57 469.91 197.35 486.82 197.19 494.33 199.49 501.28 203.42 512.84 215.78 517.37 223.85 520.13 229.73 522.44 236.03 524.32 242.64 526.16 249.39 527.63 256.34 528.78 263.41 530.02 270.46 531.07 277.56 531.99 284.65 533.2 291.62 534.43 298.55 535.79 305.43 537.64 312.15 539.77 318.82 542.24 325.43 545.38 331.9 548.96 338.34 553.02 344.78 557.77 351.11 562.98 357.47 568.6 363.87 574.76 370.21 581.17 376.63 587.7 383.16 594.42 389.65 600.96 396.27 607.14 403.04 613.03 409.8 618.21 416.72 622.48 423.8 626 430.88 628.27 437.95 629.26 444.99 629.31 452.02 628.06 459.01 625.58 465.91 622.25 472.76 617.85 479.5 612.53 486.04 606.65 492.51 600.09 498.73 593.02 504.64 585.76 510.41 578.23 515.79 570.6 520.73 563.09 525.44 555.65 529.64 548.38 533.27 541.44 536.62 534.76 539.37 528.36 541.49 519.52 543.97 503.78 545.81 496.69 545.51 490.18 545.08 477.65 544.48 471.36 545.1 465.1 547.33 451.64 556.35 444.32 563.37 439.36 569.15 434.11 575.5 428.57 582.24 423.02 589.43 417.17 596.64 411.04 603.61 404.89 610.33 398.46 616.32 391.76 621.29 385.06 625.33 378.26 627.87 371.39 628.87 364.54 628.65 357.64 626.87 350.73 623.64 343.85 619.36 336.98 613.88 330.15 607.43 323.38 600.39 316.68 592.76 310.09 584.76 303.59 576.72 297.24 568.68 291.07 560.78 285.02 553.28 279.19 546.15 273.63 539.46 268.21 533.39 263.1 527.81 258.33 522.7 251.6 516.19 240.33 505.62 235.84 501.13 229.16 493.03 222.83 479.44 221.71 473.85 220.59 467.85 218.63 453.81 217.61 445.78 216.62 440.27 215.63 434.38 214.64 428.14 213.32 421.89 212.02 415.3 210.76 408.38 209.23 401.46 207.86 394.38 206.68 387.19 205.38 380 204.38 372.7 203.72 365.3 203.09 357.92 202.9 350.46 203.16 342.94 203.58 335.44 204.53 327.91 206 320.37 207.71 312.88 209.97 305.42 212.75 298.04 215.81 290.75 219.37 283.59 223.41 276.63 227.7 269.84 232.42 263.31 237.53 257.12 242.83 251.19 248.47 245.68 254.38 240.66 260.43 235.98 266.71 231.86 273.17 228.34 279.7 225.21 286.38 222.71 293.17 220.86 299.97 219.34 306.87 218.43 313.83 218.09 320.77 217.93 327.78 218.21 334.81 218.88 341.83 219.47 348.88 220.25 355.95 221.13 363.01 221.64 370.11 222.06 377.22 222.31 384.32 221.97 391.45 221.33 398.6 220.37 405.75 218.74 412.91 216.81 420.07 214.63" stroke-dasharray="0 0" transform="rotate(32.32, 400, 400)" opacity="0.70"></path><path d="M416.47 225.92C423.18 223.33 429.68 220.73 435.94 218.23 442.19 215.58 448.2 213.24 453.93 211.32 462.33 208.96 477.49 208 484.15 209.64 490.32 212.75 500.56 223.2 504.63 230.28 507.16 235.52 509.32 241.21 511.15 247.26 513 253.5 514.58 260 515.93 266.67 517.44 273.41 518.82 280.24 520.16 287.12 521.81 293.97 523.54 300.82 525.41 307.64 527.76 314.37 530.37 321.07 533.3 327.72 536.81 334.27 540.7 340.8 544.99 347.29 549.85 353.7 555.08 360.1 560.61 366.52 566.57 372.87 572.69 379.26 578.85 385.7 585.13 392.11 591.2 398.58 596.9 405.13 602.33 411.66 607.1 418.29 611.05 424.98 614.33 431.68 616.5 438.29 617.53 444.8 617.73 451.3 616.77 457.67 614.71 463.88 611.89 470.05 608.09 476.03 603.42 481.76 598.21 487.41 592.33 492.77 585.94 497.79 579.29 502.67 572.34 507.16 565.19 511.2 558.08 515.06 550.95 518.43 543.88 521.28 537.05 523.94 530.37 526.07 523.89 527.67 514.77 529.6 498.13 531.19 490.52 531.2 483.46 531.38 469.98 532.57 463.36 534.22 456.84 537.4 443.27 547.8 436.08 555.12 431.24 560.89 426.18 567.09 420.89 573.57 415.6 580.38 410.06 587.13 404.29 593.61 398.52 599.84 392.5 605.38 386.26 610 380.02 613.78 373.7 616.24 367.35 617.32 361.01 617.34 354.64 615.95 348.29 613.25 341.97 609.59 335.67 604.82 329.44 599.11 323.27 592.81 317.19 585.88 311.24 578.52 305.36 571.02 299.65 563.38 294.14 555.76 288.73 548.38 283.55 541.23 278.64 534.39 273.85 528.01 269.36 522.02 265.2 516.43 259.34 509.01 249.6 496.5 245.75 491.1 239.99 481.63 234.43 467.13 233.37 461.63 232.26 455.88 230.21 442.69 229.12 435.22 228.1 430.11 227.09 424.65 226.08 418.86 224.75 413.05 223.45 406.92 222.2 400.46 220.69 394 219.33 387.38 218.15 380.63 216.85 373.9 215.82 367.05 215.09 360.11 214.39 353.2 214.08 346.21 214.18 339.19 214.42 332.21 215.12 325.21 216.31 318.25 217.71 311.36 219.61 304.54 222 297.83 224.63 291.25 227.74 284.84 231.31 278.66 235.11 272.67 239.33 266.97 243.94 261.64 248.73 256.56 253.87 251.9 259.29 247.73 264.86 243.86 270.68 240.52 276.7 237.75 282.8 235.29 289.08 233.39 295.48 232.06 301.93 230.98 308.49 230.41 315.12 230.33 321.76 230.33 328.46 230.7 335.2 231.35 341.94 231.88 348.71 232.54 355.49 233.25 362.28 233.59 369.07 233.83 375.87 233.89 382.66 233.4 389.45 232.64 396.22 231.6 403 229.96 409.75 228.05 416.46 225.92" stroke-dasharray="0 0" transform="rotate(36.36, 400, 400)" opacity="0.66"></path><path d="M411.56 237.22C417.8 234.73 423.81 232.25 429.58 229.86 435.33 227.32 440.82 225.05 446.04 223.13 456.39 219.73 465.53 218.64 473.32 220.1 480.93 223.21 487.16 229.01 492.04 237.12 496.92 246.56 500.77 257.67 503.88 269.86 507.71 282.49 511.54 295.62 515.81 308.87 521.8 321.99 528.89 335.07 537.23 347.98 547.45 360.67 558.58 373.32 569.94 385.9 575.78 392.17 581.39 398.44 586.63 404.72 591.61 410.99 595.98 417.28 599.61 423.57 602.66 429.86 604.73 436 605.77 441.97 606.11 447.93 605.41 453.7 603.73 459.25 598.37 470.25 589.69 480.19 578.57 488.77 566.38 496.94 553.09 503.48 539.52 508.21 526.47 512.47 513.86 515.05 501.93 516.16 491.05 517.59 480.74 518.48 470.88 519.52 461.76 522.48 452.64 526.83 443.32 533.05 434.3 542.07 424.73 552.92 414.54 564.89 409.45 571.29 404.19 577.58 398.74 583.58 393.29 589.33 387.65 594.43 381.84 598.7 376.03 602.25 370.18 604.61 364.33 605.75 358.49 605.96 352.66 604.93 346.86 602.71 335.35 595.77 324.1 585.14 313.39 572.09 302.95 558.18 293.24 543.8 284.54 529.89 276.27 517.3 269.14 505.89 263.34 495.7 257.94 487.12 253.81 479.27 250.95 471.77 248.11 465.14 246.2 458.15 245.07 450.49 243.31 443.06 241.86 434.58 240.61 424.96 239.04 417.6 235.53 401.35 233.63 392.49 232.15 386.48 230.81 380.33 229.64 374.08 228.35 367.83 227.31 361.49 226.54 355.08 225.06 342.35 225.12 329.49 226.82 316.83 229.23 304.51 233.51 292.69 239.5 281.81 246.35 271.67 254.75 262.87 264.4 255.84 274.63 249.85 285.82 245.79 297.64 243.77 309.73 242.41 322.24 242.57 334.94 243.86 347.72 244.49 360.61 245.16 373.43 245.41 379.86 244.78 386.26 243.92 392.62 242.81 398.99 241.16 405.3 239.28 411.54 237.22" stroke-dasharray="0 0" transform="rotate(40.400000000000006, 400, 400)" opacity="0.62"></path><path d="M405.73 248.51C417.27 243.46 427.86 238.77 437.4 235.02 446.85 231.55 455.17 230.09 462.28 230.87 469.3 233.04 475.16 237.66 479.94 244.44 484.86 252.5 489.05 262.26 492.75 273.22 497.24 284.76 501.87 296.97 506.98 309.47 513.6 322.04 521.17 334.66 529.7 347.15 539.73 359.55 550.36 371.85 560.98 383.96 571.71 396.03 581.1 407.99 588.17 419.72 593.28 431.45 594.74 442.35 592.63 452.27 588.2 462.08 580.72 470.73 570.91 478.03 560 485.04 547.84 490.57 535.16 494.54 522.71 498.33 510.4 500.82 498.54 502.28 487.46 504.32 476.85 506.18 466.67 508.42 457.13 512.49 447.71 517.88 438.27 524.85 429.12 534.13 419.66 544.8 409.8 556.19 400 568.17 389.67 579.03 378.86 587.4 368.04 593.29 357.28 594.81 346.75 592.03 336.3 586.25 326.21 577.04 316.72 565.41 307.45 552.74 298.94 539.25 291.4 525.82 284.19 513.22 278.04 501.42 273.1 490.6 268.41 481.08 264.82 472.29 262.33 463.97 259.75 456.49 257.94 448.93 256.78 441.01 254.98 433.39 253.43 425.02 252.07 415.8 249.66 406.61 247.29 396.43 245.07 385.3 242 374.16 239.6 362.62 238.06 350.95 236.48 339.38 236.27 327.84 237.53 316.64 239.38 305.78 242.92 295.55 248.04 286.34 253.91 277.79 261.26 270.58 269.83 265.02 278.97 260.28 289.08 257.24 299.87 255.92 310.97 254.98 322.54 255.24 334.34 256.37 346.26 256.71 358.31 257 370.27 256.87 382.29 254.9 394.17 252.06 405.72 248.52" stroke-dasharray="0 0" transform="rotate(44.44, 400, 400)" opacity="0.58"></path><path d="M399.44 259.81C410.06 255.02 419.78 250.59 428.51 246.97 437.19 243.5 444.86 241.76 451.49 241.96 458.11 243.29 463.8 246.82 468.65 252.34 473.75 259.02 478.34 267.38 482.66 276.98 487.77 287.25 493.1 298.33 498.88 309.83 505.96 321.53 513.8 333.41 522.36 345.23 532.07 357.06 542.12 368.78 551.96 380.25 561.78 391.72 570.31 402.96 576.74 413.81 581.48 424.67 583.02 434.58 581.43 443.43 577.83 452.2 571.47 459.81 562.93 466.15 553.3 472.33 542.34 477.21 530.69 480.84 519.03 484.5 507.27 487.21 495.74 489.27 484.75 492.06 474.09 494.92 463.81 498.28 454.04 503.33 444.45 509.53 434.97 517.03 425.75 526.39 416.4 536.74 406.86 547.47 397.4 558.53 387.61 568.45 377.55 576.11 367.48 581.62 357.63 583.3 348.13 581.21 338.68 576.5 329.69 568.63 321.33 558.43 313.14 547.08 305.71 534.68 299.2 521.99 292.92 509.73 287.62 497.91 283.38 486.79 279.27 476.67 276.11 467.18 273.89 458.21 271.47 449.98 269.7 441.86 268.48 433.63 266.61 425.72 264.97 417.35 263.49 408.41 261.07 399.53 258.7 389.94 256.51 379.63 253.54 369.32 251.19 358.82 249.64 348.35 247.99 337.98 247.57 327.79 248.45 318.08 249.8 308.67 252.66 300 256.95 292.38 261.9 285.31 268.22 279.51 275.7 275.21 283.72 271.5 292.71 269.25 302.39 268.42 312.4 267.73 322.93 267.96 333.71 268.83 344.66 268.85 355.75 268.76 366.78 268.27 377.87 266.12 388.83 263.25 399.44 259.81" stroke-dasharray="0 0" transform="rotate(48.48, 400, 400)" opacity="0.54"></path><path d="M393.2 271.1C402.92 266.6 411.82 262.44 419.87 258.99 427.89 255.58 435.06 253.63 441.37 253.36 447.74 253.97 453.39 256.52 458.42 260.87 463.76 266.23 468.78 273.19 473.68 281.39 479.3 290.27 485.19 300.05 491.47 310.36 498.82 320.96 506.75 331.86 515.16 342.77 524.43 353.78 533.82 364.71 542.86 375.38 551.79 386.08 559.49 396.51 565.3 406.48 569.68 416.44 571.27 425.44 570.12 433.4 567.27 441.31 561.94 448.13 554.61 453.81 546.24 459.45 536.52 464.02 525.99 467.62 515.29 471.42 504.28 474.58 493.32 477.37 482.68 480.96 472.22 484.78 462.07 489.13 452.3 494.95 442.72 501.75 433.31 509.55 424.14 518.8 414.96 528.7 405.76 538.7 396.63 548.85 387.36 557.85 378.01 564.81 368.65 569.94 359.65 571.74 351.09 570.25 342.57 566.51 334.57 559.92 327.23 551.11 320 541.13 313.52 529.95 307.9 518.23 302.41 506.61 297.8 495.11 294.12 484.05 290.46 473.68 287.62 463.81 285.56 454.42 283.24 445.64 281.46 437.08 280.14 428.58 278.2 420.4 276.45 412 274.87 403.3 272.44 394.68 270.09 385.59 267.94 376.08 265.09 366.56 262.83 357.07 261.29 347.78 259.61 338.57 259.02 329.71 259.58 321.43 260.49 313.41 262.74 306.18 266.28 299.98 270.36 294.2 275.7 289.6 282.12 286.31 289.03 283.41 296.87 281.72 305.42 281.18 314.29 280.56 323.69 280.66 333.4 281.2 343.28 280.87 353.34 280.41 363.38 279.59 373.49 277.3 383.49 274.42 393.2 271.1" stroke-dasharray="0 0" transform="rotate(52.52, 400, 400)" opacity="0.51"></path><path d="M387.5 282.4C396.34 278.19 404.52 274.31 411.98 271.06 419.43 267.76 426.21 265.7 432.32 265.05 438.53 265.08 444.21 266.78 449.46 270.06 455.04 274.21 460.45 279.82 465.82 286.63 471.83 294.09 478.09 302.47 484.68 311.46 492.11 320.8 499.95 330.51 508.06 340.35 516.79 350.32 525.47 360.28 533.69 370.04 541.74 379.84 548.65 389.37 553.86 398.46 557.89 407.56 559.49 415.74 558.72 422.97 556.52 430.17 552.14 436.43 545.94 441.73 538.78 447.08 530.31 451.6 520.96 455.4 511.33 459.51 501.25 463.23 491.04 466.79 480.99 471.14 470.99 475.78 461.19 480.94 451.65 487.32 442.28 494.48 433.1 502.36 424.11 511.32 415.2 520.66 406.39 529.89 397.64 539.11 388.89 547.23 380.21 553.51 371.52 558.26 363.3 560.13 355.59 559.16 347.91 556.29 340.79 550.87 334.33 543.41 327.94 534.81 322.25 524.94 317.36 514.35 312.52 503.63 308.45 492.76 305.2 482.09 301.88 471.84 299.25 461.92 297.28 452.41 295 443.35 293.17 434.54 291.73 425.93 289.71 417.58 287.87 409.2 286.2 400.75 283.78 392.37 281.47 383.78 279.38 375.01 276.67 366.23 274.5 357.7 272.99 349.53 271.33 341.41 270.61 333.78 270.91 326.81 272.31 317.04 281.53 302.53 289.17 298.17 295.01 295.84 301.73 294.49 309.15 294.05 316.86 293.39 325.12 293.26 333.72 293.43 342.49 292.76 351.48 291.94 360.52 290.83 369.61 288.43 378.66 285.58 387.5 282.4" stroke-dasharray="0 0" transform="rotate(56.56, 400, 400)" opacity="0.47"></path><path d="M382.79 293.7C390.8 289.8 398.29 286.21 405.24 283.19 412.2 280.04 418.65 277.94 424.62 277.03 430.7 276.6 436.43 277.59 441.89 279.96 447.65 283.01 453.34 287.38 459.04 292.87 465.28 298.92 471.74 305.9 478.42 313.53 485.75 321.5 493.33 329.93 501.02 338.57 509.12 347.36 517.05 356.23 524.45 364.98 531.64 373.77 537.78 382.37 542.42 390.61 546.09 398.85 547.67 406.3 547.22 412.94 545.6 419.59 542.07 425.46 536.91 430.59 530.91 435.81 523.65 440.44 515.51 444.59 507.01 449.07 497.98 453.37 488.69 457.63 479.43 462.62 470.09 467.91 460.86 473.65 451.78 480.36 442.81 487.65 434.03 495.41 425.39 503.94 416.86 512.62 408.51 521.02 400.21 529.32 392 536.58 383.97 542.22 375.94 546.58 368.43 548.48 361.48 547.94 354.54 545.84 348.18 541.49 342.48 535.3 336.78 528.06 331.76 519.54 327.44 510.19 323.12 500.56 319.47 490.58 316.51 480.6 313.43 470.8 310.92 461.17 308.97 451.84 306.69 442.82 304.8 434.03 303.23 425.49 301.14 417.15 299.22 408.91 297.48 400.76 295.09 392.68 292.84 384.59 290.82 376.53 288.26 368.47 286.21 360.81 284.76 353.66 282.74 343.26 283.32 325.95 286.23 319.45 290.61 314.1 304.59 308.03 313.75 306.94 320.33 306.14 327.46 305.71 334.97 305.49 342.62 304.49 350.54 303.35 358.58 301.98 366.66 299.52 374.78 296.72 382.79 293.7" stroke-dasharray="0 0" transform="rotate(60.599999999999994, 400, 400)" opacity="0.43"></path><path d="M379.43 304.99C386.65 301.41 393.52 298.13 400 295.35 406.49 292.41 412.66 290.35 418.49 289.27 424.43 288.51 430.17 288.94 435.74 290.54 441.58 292.65 447.42 295.92 453.28 300.21 459.58 304.96 466.03 310.58 472.62 316.88 479.67 323.48 486.85 330.58 493.99 337.98 501.4 345.53 508.54 353.24 515.12 360.94 521.48 368.68 526.89 376.33 530.99 383.74 534.3 391.15 535.83 397.94 535.64 404.11 534.51 410.3 531.73 415.91 527.52 420.98 522.59 426.18 516.5 430.98 509.54 435.49 502.22 440.34 494.31 445.12 486.06 449.96 477.74 455.4 469.24 461.12 460.75 467.18 452.33 473.98 443.96 481.17 435.75 488.63 427.61 496.59 419.6 504.53 411.79 512.09 404.02 519.48 396.39 525.92 389 530.92 381.6 534.89 374.76 536.77 368.49 536.6 362.21 535.15 356.51 531.78 351.42 526.76 346.31 520.81 341.81 513.63 337.94 505.6 334.01 497.18 330.66 488.29 327.9 479.23 324.97 470.19 322.54 461.16 320.55 452.32 318.26 443.64 316.29 435.14 314.6 426.9 312.45 418.79 310.48 410.85 308.69 403.11 306.36 395.42 304.18 387.86 302.25 380.48 299.86 373.11 297.95 366.26 296.58 359.99 294.62 350.93 294.62 336.25 296.84 330.86 300.27 326.34 311.67 320.96 319.33 319.71 324.85 318.68 330.9 317.93 337.36 317.34 343.94 316.03 350.82 314.62 357.89 313.04 364.99 310.56 372.21 307.84 379.43 304.99" stroke-dasharray="0 0" transform="rotate(64.64, 400, 400)" opacity="0.39"></path><path d="M377.7 316.29C384.17 313.03 390.44 310.07 396.46 307.56 402.5 304.87 408.35 302.9 414.01 301.75 419.76 300.78 425.42 300.79 430.99 301.78 436.77 303.13 442.59 305.47 448.43 308.71 454.59 312.3 460.85 316.69 467.16 321.74 473.79 327.03 480.43 332.85 486.94 339.03 493.59 345.34 499.93 351.89 505.7 358.53 511.26 365.22 515.97 371.93 519.56 378.54 523.24 388.25 522.19 405.59 517.77 413.35 513.82 418.53 508.82 423.49 503.01 428.29 496.85 433.39 490.09 438.51 482.93 443.72 475.66 449.39 468.13 455.3 460.53 461.44 452.94 468.1 445.33 474.98 437.82 481.96 430.35 489.25 422.98 496.39 415.8 503.09 408.64 509.59 401.65 515.22 394.9 519.63 385.04 524.11 368.02 522.99 360.87 517.77 356.24 513.03 352.16 507.15 348.62 500.43 344.99 493.3 341.86 485.62 339.22 477.66 336.41 469.6 334 461.43 331.97 453.33 329.65 445.29 327.61 437.35 325.83 429.63 323.65 421.99 321.65 414.53 319.85 407.32 317.59 400.14 315.51 393.16 313.69 386.47 310.6 376.71 306.59 360.2 306.03 353.54 308.35 343.25 319.66 333.77 325.97 332.22 333.05 330.42 349.59 326.55 358.69 324.02 364.87 321.54 371.23 318.94 377.7 316.29" stroke-dasharray="0 0" transform="rotate(68.68, 400, 400)" opacity="0.35"></path><path d="M377.73 327.59C389.24 321.32 400.46 316.72 411.17 314.42 422.21 312.46 433.32 313.85 444.34 318.35 456.23 323.84 468.34 332.05 479.82 342.02 491.53 352.4 501.53 363.87 508.12 375.57 512.77 387.28 512.4 398.1 507.68 407.97 501.05 418.28 491.06 428.5 479.15 438.81 466.67 450.47 453.2 462.89 439.82 475.35 426.49 488.46 413.38 500.16 401.2 508.33 389.01 513.93 378.74 513.67 370.46 508.33 362.01 500.42 355.29 488.89 350.32 475.56 344.69 461.61 340.23 447.07 336.88 433.07 332.21 419.19 328.16 405.89 325.13 393.85 320.83 381.81 318.42 372.05 318.06 364.67 317.64 357.21 319.86 351.98 324.51 348.82 329.6 344.95 337.01 342.25 346.15 340.25 355.5 336.19 366.23 331.88 377.73 327.59" stroke-dasharray="0 0" transform="rotate(72.72, 400, 400)" opacity="0.32"></path><path d="M379.53 338.88C389.64 333.38 399.84 329.37 409.84 327.26 420.09 325.22 430.52 325.86 440.84 329.08 451.7 332.92 462.55 339.14 472.6 347.11 482.66 355.37 491.12 364.9 496.68 375.14 500.79 385.37 500.8 395.35 497.25 404.9 492.24 414.8 484.31 424.87 474.58 435.05 464.28 446.11 452.88 457.59 441.33 468.74 429.75 480.12 418.22 490.1 407.41 497.03 396.58 502.03 387.38 502.3 379.87 498.43 372.17 492.56 365.89 483.51 361.05 472.64 355.62 461.09 351.18 448.69 347.72 436.51 343.23 424.31 339.39 412.53 336.56 401.87 332.73 391.21 330.6 382.58 330.22 376 330.52 366.8 342 355.37 352.59 351.24 360.3 347.06 369.41 342.84 379.53 338.88" stroke-dasharray="0 0" transform="rotate(76.76, 400, 400)" opacity="0.28"></path><path d="M382.93 350.18C391.67 345.45 400.75 342.05 409.8 340.23 419.03 338.29 428.46 338.48 437.73 340.76 447.31 343.35 456.71 347.98 465.24 354.25 473.66 360.68 480.66 368.48 485.24 377.28 488.78 386.09 489.06 395.09 486.49 404.02 482.87 413.2 476.8 422.68 469.1 432.21 460.92 442.25 451.62 452.44 441.97 462.06 432.26 471.68 422.42 479.97 413.03 485.74 403.63 490.09 395.49 490.73 388.71 488.09 381.76 483.98 375.94 477.18 371.26 468.69 366.12 459.56 361.79 449.46 358.35 439.28 354.14 429.02 350.58 418.95 348 409.7 344.66 400.45 342.82 392.85 342.49 386.89 342.58 378.38 351.62 366.56 360.25 361.9 366.54 357.76 374.19 353.75 382.93 350.18" stroke-dasharray="0 0" transform="rotate(80.80000000000001, 400, 400)" opacity="0.24"></path><path d="M387.69 361.48C395.06 357.53 402.86 354.75 410.74 353.27 418.71 351.6 426.88 351.58 434.83 353.2 442.92 354.94 450.74 358.34 457.71 363.2 464.52 368.14 470.13 374.4 473.81 381.79 476.77 389.17 477.21 397.02 475.44 405 472.96 413.12 468.51 421.58 462.66 430.01 456.44 438.68 449.17 447.31 441.44 455.28 433.62 463.11 425.53 469.79 417.62 474.44 409.7 478.13 402.68 478.98 396.67 477.31 390.54 474.65 385.24 469.81 380.84 463.51 376.1 456.69 372.02 448.88 368.74 440.78 364.91 432.57 361.71 424.3 359.44 416.52 355.86 405.44 354.86 388.94 357.74 383.01 360.1 378.87 363.9 375.27 368.96 372.19 374.02 368.27 380.32 364.6 387.69 361.48" stroke-dasharray="0 0" transform="rotate(84.84, 400, 400)" opacity="0.20"></path><path d="M393.42 372.77C405.38 366.03 419.12 363.75 431.92 366.18 444.87 368.62 456.35 376.24 462.37 388.18 466.62 400.11 463.41 414.33 455.24 428.15 446.07 442.26 433.57 455.45 420.81 463.14 408.05 468.42 397.37 465.43 389.67 457 381.1 447.17 374.32 434.17 370.88 421.63 366 409.08 365.73 399.25 369.58 392.46 373.24 384.36 381.46 377.39 393.42 372.77" stroke-dasharray="0 0" transform="rotate(88.88, 400, 400)" opacity="0.16"></path><path d="M399.67 384.07C408.77 379.08 419.23 377.55 428.82 379.44 438.37 381.16 446.66 386.73 450.93 395.79 454.23 404.84 452.34 415.81 446.85 426.31 440.79 436.79 431.96 446.34 422.37 451.85 412.76 456.01 404.2 454.53 397.69 449.11 390.71 442.9 385.13 433.93 382.31 424.49 378.66 415.04 378.57 406.87 381.57 400.7 384.36 393.79 390.56 387.84 399.67 384.07" stroke-dasharray="0 0" transform="rotate(92.92, 400, 400)" opacity="0.13"></path><path d="M405.94 395.37C418.27 388.39 433.76 391.61 439.5 403.84 443.54 416.06 434.94 433.1 422.15 440.55 409.35 445.66 397.39 437.41 393.75 424.81 388.58 412.2 393.61 400.15 405.94 395.37" stroke-dasharray="0 0" transform="rotate(96.96, 400, 400)" opacity="0.09"></path></g></svg>