<?xml version="1.0" encoding="UTF-8"?><svg id="Layer_2" xmlns="http://www.w3.org/2000/svg" viewBox="0 0 684.9 168.5"><defs><style>.cls-1{fill:#fff;}</style></defs><g id="Layer_1-2"><rect width="166.9" height="168.5" rx="15.9" ry="15.9"/><path class="cls-1" d="m107.9,96.8c0-3,0-5.9,0-8.9,0-3.5,1.4-4.8,4.9-5,5-.3,9-2.7,11.5-7,.9-1.6,1.3-3.5,1.9-5.3.2-.8,0-1.3-.9-1.7-4.3-2.3-6.8-5.8-6.7-10.9,0-1.1,0-2.2,0-3.4,0-2.2,1.6-3.8,3.7-3.9,2.2-.1,4,1.5,4.1,3.8,0,1.2,0,2.3,0,3.5,0,2.4,1.7,4.2,4,4.2,2.2,0,3.9-1.8,3.9-4.2,0-1.1,0-2.2,0-3.4,0-2.3,1.8-4,4.1-3.9,2.2,0,3.8,1.9,3.7,4.3-.1,2.1,0,4.2-.4,6.3-.8,3.6-3.2,6.1-6.5,7.7-.8.4-1,.9-1,1.7-1,9.2-7.4,16.8-15.8,19.2-2.6.7-2.6.7-2.6,3.4,0,4.3,0,8.7,0,13,.1,7.5-6,12.9-13,13.1-2.1,0-4.3,0-6.4,0-1.2,0-1.6.3-1.6,1.5,0,3.2,0,6.5-.2,9.7-.5,5.4-5.8,9.7-11.2,9.4-3.5-.2-6.4-1.5-8.6-4.3-1.7-2.2-2.4-4.8-2.4-7.5,0-2.4,0-4.8,0-7.1,0-1.3-.4-1.6-1.7-1.6-2.8,0-5.7,0-8.4-.3-5.7-.6-10.7-6.2-10.9-11.9,0-.6,0-1.3,0-1.9,0-2.1,1.8-3.8,3.9-3.8,2.1,0,3.7,1.6,3.9,3.7.3,4.6,2.2,6.5,6.8,6.5,11.9,0,23.8,0,35.7,0,2.4,0,4.6-.5,5.8-2.9.4-.8.7-1.7.7-2.5,0-3.1,0-6.3,0-9.4Zm-27.8,27.9s0,0,0,0c0,1.4,0,2.8,0,4.2,0,.1,0,.3,0,.4.2,1.6,1.5,2.8,3.2,2.9,1.7,0,3.2-1,3.3-2.6.2-3.1.2-6.2.2-9.2,0-.3-.6-.8-1-.8-1.6,0-3.1,0-4.7,0-.8,0-1.1.3-1.1,1.1,0,1.4,0,2.8,0,4.2Z"/><path class="cls-1" d="m90.4,28.6c2.6,0,5.1-.1,7.7,0,3.7.2,7.1,1.5,10,3.7,7.6,5.6,9.7,15.5,5.7,23.7-3,6.1-8.1,10-15.2,10.4-5.1.3-10.3-2.3-15.4-2.3-5.1,0-10,2.5-15.1,2.3-5.7-.3-10.2-3.1-13.4-7.7-5-7-4.9-15.4.1-22.4,3.5-4.8,8.4-7.4,14.4-7.7,2.7-.1,5.4,0,8.1,0h13Zm4.6,29.6c1.2.3,2.4.5,3.6.2,4.3-.8,7.9-3.9,9-8.2.3-1.3.4-2.6.3-3.8-.7-5.6-5.3-10-10.8-10-9,0-17.9,0-26.9,0-7,0-12.3,6.6-11,13.2.7,3.7,3.7,7.4,7.5,8.7s3.2.5,4.7,0h.1c7.7-2.4,15.8-2.4,23.5,0h0Z"/><path class="cls-1" d="m87.9,77.7c-7.7,0-15.4,0-23.1,0-3.4,0-5.7,2.3-5.8,5.7,0,1.1,0,2.2,0,3.4,0,2.5-1.5,4.1-4,4.1-6,0-12,0-18,0-2.7,0-4.2-1.7-4.2-4.5,0-5.1,0-10.1,0-15.2,0-1.2-.4-1.9-1.5-2.5-4-2.2-6.2-5.6-6.3-10.2,0-1.3,0-2.5,0-3.8,0-2.4,1.7-4,4-4,2.3,0,3.8,1.7,3.8,4.1,0,1.1,0,2.2,0,3.2,0,2.2,1.9,4.2,4,4.1,2.2,0,3.8-1.8,3.9-4.1,0-1.5,0-3,.3-4.4.3-1.8,1.9-3,3.6-3,2,0,3.6,1.2,3.8,3.1.6,5.1.2,10-4.2,13.6-.8.6-1.8,1-2.6,1.7-.5.4-1,1.1-1,1.7,0,3.7,0,7.4,0,11.2,0,.9.4,1.1,1.1,1.1,2.9,0,5.7,0,8.6,0,.8,0,1-.4,1.1-1.1.7-6.7,6.2-11.8,12.9-11.8,15.8,0,31.5,0,47.3,0,2.7,0,4.2,1.4,4.2,3.8,0,2.5-1.5,4-4,4-7.9,0-15.9,0-23.8,0Z"/><path class="cls-1" d="m83.5,106.2c-4.9,0-9.8,0-14.6,0-3.3,0-4.7-1.5-4.7-4.8,0-4.5,0-9,0-13.4,0-3.6,1.4-5,5.1-5,9.5,0,19.1,0,28.6,0,3.6,0,4.9,1.4,4.9,5,0,4.5,0,9,0,13.4,0,3.5-1.4,4.9-4.9,4.8-4.8,0-9.6,0-14.4,0Zm0-15.4c-3.4,0-6.8,0-10.2,0-1,0-1.4.3-1.4,1.3,0,1.7,0,3.4,0,5.1,0,.9.4,1.2,1.3,1.2,6.7,0,13.4,0,20.1,0,1.1,0,1.6-.4,1.5-1.5,0-1.6,0-3.1,0-4.7,0-1.1-.4-1.5-1.5-1.5-3.3,0-6.6,0-9.9,0Z"/><path d="m262.5,83.9c3.1-3.6,5-8.8,5-14.2,0-11.9-9-21.1-20.2-21.1h-32.1c-2,0-3.7,1.6-3.7,3.7v5.5c0,2,1.6,3.7,3.7,3.7h32.1c2,.1,3.9,1.1,5.2,2.6,1.3,1.5,2.1,3.5,2.1,5.7,0,4.4-3.2,7.1-7.3,7.4h-32.1c-2,0-3.7,1.6-3.7,3.7v5.5c0,2,1.6,3.7,3.7,3.7h33.9c4.1.3,7.3,4.6,7.3,8.7s-3.2,6.6-7.3,6.9h-33.9c-2,0-3.7,1.6-3.7,3.7v5.5c0,2,1.6,3.7,3.7,3.7h33.9c11.1,0,21.1-9,21.1-20.2s-3.6-10.5-7.7-14.2Z"/><path d="m677.2,83.9c3.1-3.6,5-8.8,5-14.2,0-11.9-9-21.1-20.2-21.1h-32.1c-2,0-3.7,1.6-3.7,3.7v5.5c0,2,1.6,3.7,3.7,3.7h32.1c2,.1,3.9,1.1,5.2,2.6,1.3,1.5,2.1,3.5,2.1,5.7,0,4.4-3.2,7.1-7.3,7.4h-32.1c-2,0-3.7,1.6-3.7,3.7v5.5c0,2,1.6,3.7,3.7,3.7h33.9c4.1.3,7.3,4.6,7.3,8.7s-3.2,6.6-7.3,6.9h-33.9c-2,0-3.7,1.6-3.7,3.7v5.5c0,2,1.6,3.7,3.7,3.7h33.9c11.1,0,21.1-9,21.1-20.2s-3.6-10.5-7.7-14.2Z"/><path d="m398.7,48.6h-67c0,0-.1,0-.2,0h-2.2c-.9,0-1.8.4-2.4,1.2l-24.4,34.9c0,0,0,.1-.1.2-.2.3-.4.6-.4,1v30.5c0,2,1.6,3.7,3.7,3.7h5.5c2,0,3.7-1.6,3.7-3.7v-25.6l20.8-29.5h30.9v54.1c0,2,1.6,3.7,3.7,3.7h5.5c2,0,3.7-1.6,3.7-3.7v-54.1h19.3c2,0,3.7-1.6,3.7-3.7v-5.5c0-2-1.6-3.7-3.7-3.7Z"/><rect x="412.4" y="48.6" width="54.1" height="12.8" rx="3.7" ry="3.7"/><rect x="412.4" y="77" width="48.6" height="12.8" rx="3.7" ry="3.7"/><rect x="412.4" y="105.4" width="53.2" height="12.8" rx="3.7" ry="3.7"/><rect x="497.8" y="48.6" width="12.8" height="70.6" rx="3.7" ry="3.7"/><path d="m590.6,51c-.6-1.5-2.1-2.4-3.7-2.4h-7.6c-1.6,0-3.1,1-3.7,2.4l-19.1,45c-.7,1.6.5,3.5,2.3,3.5h9.1c1,0,2-.6,2.3-1.6l9.7-25.3c.8-2.1,3.7-2.1,4.6-.1l12.5,28.6c.7,1.6-.5,3.5-2.3,3.5h-69.1c-1,0-1.9.6-2.3,1.5l-3.9,8.8c-.7,1.6.5,3.5,2.3,3.5h93.9c1.8,0,3-1.8,2.3-3.5l-27.4-63.8Z"/><path d="m302.2,68.1l-12.5-18.4c-.5-.8-1.4-1.2-2.4-1.2h-9.9c-2.3.1-3.6,2.6-2.3,4.5l12.5,18.4c.5.8,1.4,1.2,2.4,1.2h9.9c2.3-.1,3.6-2.6,2.3-4.5Z"/></g></svg>